<?xml version="1.0" encoding="UTF-8"?>
<svg id="Layer_2" data-name="Layer 2" xmlns="http://www.w3.org/2000/svg" xmlns:xlink="http://www.w3.org/1999/xlink" viewBox="0 0 120 47">
  <defs>
    <style>
      .cls-1 {
        fill: url(#linear-gradient-2);
      }

      .cls-2 {
        fill: url(#linear-gradient);
      }
      .text-white {
        fill: white;
      }
    </style>
    <linearGradient id="linear-gradient" x1="60.42" y1="42.93" x2="60.42" y2="36.75" gradientUnits="userSpaceOnUse">
      <stop offset="0" stop-color="#0000ff"/>
      <stop offset="1" stop-color="#1e90ff"/>
    </linearGradient>
    <linearGradient id="linear-gradient-2" x1="60.42" y1="27.75" x2="60.42" y2="4.07" xlink:href="#linear-gradient"/>
  </defs>
  <g class="text-white">
    <path d="M25.29,35.19v-5.53h4.18v1.03h-2.9v4.5h-1.28ZM26.47,33.18v-1.03h2.65v1.03h-2.65Z"/>
    <path d="M30.25,35.19v-5.86h1.23v5.86h-1.23Z"/>
    <path d="M33.24,30.35c-.23,0-.41-.07-.55-.2-.14-.13-.21-.29-.21-.49s.07-.36.21-.49c.14-.13.33-.2.55-.2s.41.06.55.19c.14.12.21.28.21.48,0,.21-.07.38-.21.51s-.33.2-.56.2ZM32.63,35.19v-4.25h1.23v4.25h-1.23Z"/>
    <path d="M36.81,34.98c-.39,0-.75-.09-1.07-.26-.32-.17-.57-.41-.77-.72-.19-.31-.29-.67-.29-1.08s.1-.78.29-1.09c.19-.31.45-.55.77-.71.32-.17.68-.25,1.07-.25.36,0,.67.07.95.22.27.14.49.37.64.67.15.3.23.69.23,1.16s-.08.85-.23,1.16c-.15.3-.37.53-.64.68-.27.15-.59.22-.95.22ZM37,36.78c-.4,0-.79-.05-1.16-.15-.37-.1-.68-.24-.93-.44l.49-.88c.18.15.41.26.68.35.28.09.55.13.82.13.44,0,.75-.1.95-.29.2-.19.3-.48.3-.87v-.64l.08-1.07-.02-1.07v-.92h1.17v3.54c0,.79-.21,1.37-.62,1.75-.41.37-1,.56-1.77.56ZM37.06,33.97c.22,0,.41-.04.58-.13.17-.09.3-.21.39-.37.09-.16.14-.34.14-.54s-.05-.39-.14-.55c-.09-.16-.23-.28-.39-.36-.17-.09-.36-.13-.58-.13s-.41.04-.58.13c-.17.09-.3.21-.4.36-.1.16-.15.34-.15.55s.05.39.15.54c.1.16.23.28.4.37.17.09.36.13.58.13Z"/>
    <path d="M40.53,35.19v-5.86h1.23v2.79l-.28-.36c.15-.28.37-.5.66-.66.28-.15.61-.23.97-.23.34,0,.64.07.9.2.27.13.48.34.63.62.15.28.23.63.23,1.06v2.43h-1.23v-2.24c0-.34-.07-.59-.23-.76-.15-.16-.36-.24-.64-.24-.19,0-.37.04-.53.12-.16.08-.28.21-.36.38-.09.17-.13.38-.13.65v2.1h-1.23Z"/>
    <path d="M45.48,31.89v-.95h2.95v.95h-2.95ZM47.73,35.25c-.5,0-.89-.13-1.17-.38-.28-.26-.42-.64-.42-1.14v-3.73h1.23v3.71c0,.18.05.32.14.41.09.9-.31,0,.39.15.19,0,.36-.05.5-.16l.33.87c-.13.09-.28.16-.45.2-.18.04-.36.07-.55.07Z"/>
    <path d="M53.68,35.25c-.45,0-.85-.09-1.2-.28-.35-.19-.63-.45-.83-.78-.2-.33-.3-.7-.3-1.13s.1-.8.3-1.13c.2-.33.48-.59.83-.77.35-.19.75-.28,1.2-.28s.85.09,1.2.28c.35.19.63.44.83.77.2.33.3.71.3,1.14s-.1.8-.3,1.13c-.2.33-.48.59-.83.78-.35.19-.75.28-1.2.28ZM53.68,34.24c.21,0,.39-.05.55-.14.16-.09.29-.23.39-.41.09-.18.14-.39.14-.63s-.05-.46-.14-.63c-.09-.17-.22-.31-.39-.4-.16-.09-.35-.14-.55-.14s-.39.05-.55.14-.29.23-.39.4c-.1.17-.15.38-.15.63s.05.45.15.63c.1.18.23.31.39.41.16.09.35.14.55.14Z"/>
    <path d="M56.83,35.19v-4.25h1.18v1.18l-.22-.36c.15-.28.37-.5.66-.66.28-.15.61-.23.97-.23.34,0,.64.07.9.2.27.13.48.34.63.62.15.28.23.63.23,1.06v2.43h-1.23v-2.24c0-.34-.07-.59-.23-.76-.15-.16-.36-.24-.64-.24-.19,0-.37.04-.53.12-.16.08-.28.21-.36.38-.09.17-.13.38-.13.65v2.1h-1.23Z"/>
    <path d="M64.61,35.19v-5.53h2.7c.7,0,1.22.13,1.57.39.35.26.53.61.53,1.04,0,.29-.07.54-.21.75-.14.21-.34.38-.58.49-.25.12-.53.17-.85.17l.15-.32c.35,0,.66.06.92.17.27.11.48.28.63.5s.23.49.23.81c0,.47-.19.84-.56,1.11-.37.27-.92.4-1.65.4h-2.86ZM65.88,34.23h1.49c.33,0,.58-.05.75-.16.17-.11.26-.28.26-.52s-.09-.4-.26-.52-.42-.17-.75-.17h-1.59v-.93h1.37c.31,0,.55-.05.71-.16.17-.11.25-.27.25-.49s-.08-.38-.25-.49c-.17-.11-.4-.16-.71-.16h-1.27v3.6Z"/>
    <path d="M72.36,35.25c-.35,0-.67-.07-.94-.21-.28-.14-.49-.35-.64-.63-.15-.28-.23-.64-.23-1.08v-2.4h1.23v2.22c0,.35.07.61.23.78s.36.25.64.25c.19,0,.36-.04.51-.12.15-.08.26-.21.35-.38.08-.17.13-.39.13-.64v-2.1h1.23v4.25h-1.17v-1.17l.21.34c-.14.29-.35.52-.63.67-.28.15-.58.23-.9.23Z"/>
    <path d="M77.82,35.25c-.4,0-.76-.09-1.08-.27-.32-.18-.58-.44-.76-.76-.19-.33-.28-.71-.28-1.15s.09-.83.28-1.16c.19-.33.44-.58.76-.76.32-.18.68-.27,1.08-.27.36,0,.67.08.94.24.27.16.48.4.62.72.15.32.22.73.22,1.23s-.07.9-.21,1.23-.35.56-.61.72-.59.24-.96.24ZM78.03,34.24c.2,0,.38-.05.54-.14.16-.09.29-.23.39-.41.1-.18.15-.39.15-.63s-.05-.46-.15-.63c-.1-.17-.23-.31-.39-.4s-.34-.14-.54-.14-.39.05-.55.14-.29.23-.39.4c-.1.17-.15.38-.15.63s.05.45.15.63c.1.18.23.31.39.41.16.09.35.14.55.14ZM79.14,35.19v-.87l.02-1.26-.08-1.26v-2.47h1.23v5.86h-1.18Z"/>
    <path d="M83.27,34.98c-.39,0-.75-.09-1.07-.26-.32-.17-.57-.41-.77-.72-.19-.31-.29-.67-.29-1.08s.1-.78.29-1.09c.19-.31.45-.55.77-.71.32-.17.68-.25,1.07-.25.36,0,.67.07.95.22.27.14.49.37.64.67.15.3.23.69.23,1.16s-.08.85-.23,1.16c-.15.3-.37.53-.64.68-.27.15-.59.22-.95.22ZM83.46,36.78c-.4,0-.79-.05-1.16-.15-.37-.10-.68-.24-.93-.44l.49-.88c.18.15.41.26.68.35.28.09.55.13.82.13.44,0,.75-.1.95-.29.2-.19.3-.48.3-.87v-.64l.08-1.07-.02-1.07v-.92h1.17v3.54c0,.79-.21,1.37-.62,1.75-.41.37-1,.56-1.77.56ZM83.51,33.97c.22,0,.41-.04.58-.13.17-.09.3-.21.39-.37.09-.16.14-.34.14-.54s-.05-.39-.14-.55c-.09-.16-.23-.28-.39-.36-.17-.09-.36-.13-.58-.13s-.41.04-.58.13c-.17.09-.3.21-.4.36-.1.16-.15.34-.15.55s.05.39.15.54c.1.16.23.28.4.37.17.09.36.13.58.13Z"/>
    <path d="M89.09,35.25c-.48,0-.91-.09-1.28-.28-.37-.19-.65-.45-.85-.78-.2-.33-.3-.7-.3-1.13s.1-.8.3-1.13c.2-.33.47-.59.81-.77.34-.19.73-.28,1.16-.28s.79.09,1.13.26c.33.18.6.43.79.76.19.33.29.72.29,1.18,0,.05,0,.1,0,.16s-.01.12-.02.17h-3.45v-.72h2.8l-.47.21c0-.22-.04-.41-.13-.58-.09-.16-.21-.29-.37-.38-.16-.09-.34-.14-.55-.14s-.4.05-.56.14c-.16.09-.29.22-.38.39-.09.17-.13.36-.13.59v.19c0,.23.05.44.15.61.1.18.25.31.43.4.19.09.41.14.66.14.23,0,.43-.03.6-.1.17-.07.33-.17.47-.31l.66.71c-.19.22-.44.39-.73.51s-.63.18-1.02.18Z"/>
    <path d="M91.46,31.89v-.95h2.95v.95h-2.95ZM93.71,35.25c-.5,0-.89-.13-1.17-.38-.28-.26-.42-.64-.42-1.14v-3.73h1.23v3.71c0,.18.05.32.14.41.09.10.22.15.39.15.19,0,.36-.05.5-.16l.33.87c-.13.09-.28.16-.45.2-.18.04-.36.07-.55.07Z"/>
  </g>
  <path class="cls-2" d="M43.15,36.75h37.18v6.18h-37.18c-1.46,0-2.64-1.18-2.64-2.64v-.9c0-1.46,1.18-2.64,2.64-2.64Z"/>
  <g class="text-white">
    <path d="M41.7,40.89v-.37c.19.14.4.21.63.21.31,0,.46-.1.46-.31,0-.06-.01-.11-.04-.15-.03-.04-.06-.08-.11-.11-.04-.03-.1-.06-.16-.08s-.13-.05-.19-.08c-.1-.04-.18-.08-.25-.12-.07-.04-.13-.08-.18-.13-.05-.05-.09-.10-.11-.17-.02-.06-.04-.14-.04-.22,0-.10.02-.19.07-.27.05-.08.11-.14.19-.20.08-.05.17-.09.27-.12.10-.03.20-.04.31-.04.19,0,.36.03.51.10v.35c-.16-.10-.34-.16-.55-.16-.07,0-.12,0-.18.02-.05.01-.10.04-.14.06-.04.03-.07.06-.09.10-.02.04-.03.08-.03.12,0,.06.01.10.03.14.02.04.05.07.09.10.04.03.09.06.14.08s.12.05.19.08c.10.04.18.07.26.11.08.04.14.08.20.13.05.05.10.11.12.17s.04.14.04.23c0,.11-.02.20-.07.28s-.11.15-.19.20c-.08.05-.17.09-.27.12-.10.03-.21.04-.33.04-.22,0-.42-.04-.58-.13Z"/>
    <path d="M44.03,40.65h0v1.31h-.35v-3.18h.35v.38h0c.17-.29.42-.43.75-.43.28,0,.50.10.66.29s.24.46.24.78c0,.36-.09.66-.27.87s-.42.33-.73.33c-.28,0-.50-.12-.65-.37ZM44.02,39.77v.30c0,.18.06.33.18.46.12.13.27.19.45.19.21,0,.38-.08.50-.24.12-.16.18-.39.18-.67,0-.24-.06-.43-.17-.57-.11-.14-.26-.21-.45-.21-.20,0-.37.07-.49.21-.12.14-.18.32-.18.53Z"/>
    <path d="M47.98,39.96h-1.54c0,.24.07.43.20.56s.30.20.51.20c.25,0,.47-.08.68-.24v.33c-.19.14-.44.21-.76.21s-.55-.10-.72-.30c-.18-.20-.26-.48-.26-.83,0-.34.10-.61.29-.83s.43-.32.71-.32.50.09.66.28c.16.18.23.44.23.77v.18ZM47.62,39.67c0-.20-.05-.36-.15-.47-.10-.11-.23-.17-.40-.17s-.30.06-.42.18c-.11.12-.19.27-.21.46h1.17Z"/>
    <path d="M50.31,40.96h-.35v-1.24c0-.46-.17-.69-.51-.69-.17,0-.32.07-.43.20-.11.13-.17.30-.17.50v1.24h-.35v-2.18h.35v.36h0c.16-.27.40-.41.71-.41.24,0,.42.08.55.23.13.15.19.38.19.67v1.33Z"/>
    <path d="M52.82,40.96h-.35v-.37h0c-.16.28-.41.42-.75.42-.27,0-.49-.10-.66-.29-.16-.19-.25-.46-.25-.80,0-.36.09-.65.27-.86s.42-.33.72-.33.52.12.65.35h0v-1.35h.35v3.22ZM52.48,39.98v-.32c0-.18-.06-.32-.17-.45-.12-.12-.26-.18-.44-.18-.21,0-.38.08-.50.23-.12.16-.18.37-.18.65,0,.25.06.45.18.59s.27.22.47.22.35-.07.47-.21.18-.32.18-.53Z"/>
    <path d="M55.07,40.96h-.35v-3.22h.35v3.22Z"/>
    <path d="M57.52,39.96h-1.54c0,.24.07.43.20.56s.30.20.51.20c.25,0,.47-.08.68-.24v.33c-.19.14-.44.21-.76.21s-.55-.10-.72-.30c-.18-.20-.26-.48-.26-.83,0-.34.10-.61.29-.83s.43-.32.71-.32.50.09.66.28c.16.18.23.44.23.77v.18ZM57.17,39.67c0-.20-.05-.36-.15-.47-.10-.11-.23-.17-.40-.17s-.30.06-.42.18c-.11.12-.19.27-.21.46h1.17Z"/>
    <path d="M57.92,40.89v-.37c.19.14.40.21.63.21.31,0,.46-.10.46-.31,0-.06-.01-.11-.04-.15-.03-.04-.06-.08-.11-.11-.04-.03-.10-.06-.16-.08s-.13-.05-.19-.08c-.10-.04-.18-.08-.25-.12-.07-.04-.13-.08-.18-.13-.05-.05-.09-.10-.11-.17-.02-.06-.04-.14-.04-.22,0-.10.02-.19.07-.27.05-.08.11-.14.19-.20.08-.05.17-.09.27-.12.10-.03.20-.04.31-.04.19,0,.36.03.51.10v.35c-.16-.10-.34-.16-.55-.16-.07,0-.12,0-.18.02-.05.01-.10.04-.14.06-.04.03-.07.06-.09.10-.02.04-.03.08-.03.12,0,.06.01.10.03.14.02.04.05.07.09.10.04.03.09.06.14.08s.12.05.19.08c.10.04.18.07.26.11.08.04.14.08.20.13.05.05.10.11.12.17s.04.14.04.23c0,.11-.02.20-.07.28s-.11.15-.19.20c-.08.05-.17.09-.27.12-.10.03-.21.04-.33.04-.22,0-.42-.04-.58-.13Z"/>
    <path d="M59.77,40.89v-.37c.19.14.40.21.63.21.31,0,.46-.10.46-.31,0-.06-.01-.11-.04-.15-.03-.04-.06-.08-.11-.11-.04-.03-.10-.06-.16-.08s-.13-.05-.19-.08c-.10-.04-.18-.08-.25-.12-.07-.04-.13-.08-.18-.13-.05-.05-.09-.10-.11-.17-.02-.06-.04-.14-.04-.22,0-.10.02-.19.07-.27.05-.08.11-.14.19-.20.08-.05.17-.09.27-.12.10-.03.20-.04.31-.04.19,0,.36.03.51.10v.35c-.16-.10-.34-.16-.55-.16-.07,0-.12,0-.18.02-.05.01-.10.04-.14.06-.04.03-.07.06-.09.10-.02.04-.03.08-.03.12,0,.06.01.10.03.14.02.04.05.07.09.10.04.03.09.06.14.08s.12.05.19.08c.10.04.18.07.26.11.08.04.14.08.20.13.05.05.10.11.12.17s.04.14.04.23c0,.11-.02.20-.07.28s-.11.15-.19.20c-.08.05-.17.09-.27.12-.10.03-.21.04-.33.04-.22,0-.42-.04-.58-.13Z"/>
    <path d="M62.06,40.48l-.34,1.05h-.25l.25-1.05h.34Z"/>
    <path d="M64.95,38.05c-.07-.04-.15-.06-.23-.06-.24,0-.37.15-.37.46v.34h.51v.30h-.51v1.88h-.35v-1.88h-.37v-.30h.37v-.35c0-.23.07-.41.20-.54s.30-.20.49-.20c.11,0,.19.01.25.04v.31Z"/>
    <path d="M65.59,40.96h-.35v-3.22h.35v3.22Z"/>
    <path d="M68.02,38.79l-1,2.52c-.18.45-.43.68-.75.68-.09,0-.17,0-.23-.03v-.31c.08.03.14.04.21.04.18,0,.31-.10.40-.31l.17-.41-.85-2.17h.39l.59,1.67s.02.08.04.17h.01s.02-.09.04-.16l.62-1.68h.36Z"/>
    <path d="M72.68,40.96h-.35v-1.25c0-.24-.04-.41-.11-.52-.07-.11-.20-.16-.38-.16-.15,0-.28.07-.38.20-.10.14-.16.30-.16.49v1.24h-.35v-1.29c0-.43-.16-.64-.50-.64-.15,0-.28.06-.38.19-.10.13-.15.29-.15.50v1.24h-.35v-2.18h.35v.34h0c.15-.26.38-.40.68-.40.15,0,.28.04.39.12.11.08.19.19.23.33.16-.30.40-.45.72-.45.48,0,.72.30.72.89v1.34Z"/>
    <path d="M74.25,41.02c-.32,0-.58-.10-.77-.30-.19-.20-.29-.47-.29-.81,0-.37.10-.65.30-.86.20-.21.47-.31.81-.31s.58.10.76.30c.18.20.27.48.27.83s-.10.62-.29.83c-.20.21-.46.31-.79.31ZM74.27,39.03c-.22,0-.40.08-.53.23-.13.15-.20.36-.20.63s.07.46.20.61c.13.15.31.22.53.22s.40-.07.52-.22c.12-.15.18-.35.18-.62s-.06-.48-.18-.63c-.12-.15-.29-.22-.52-.22Z"/>
    <path d="M77.02,39.14c-.06-.05-.15-.07-.26-.07-.15,0-.27.07-.37.21-.10.14-.15.33-.15.57v1.11h-.35v-2.18h.35v.45h0c.05-.15.13-.27.23-.36.10-.09.22-.13.34-.13.09,0,.16,0,.21.03v.36Z"/>
    <path d="M79.15,39.96h-1.54c0,.24.07.43.20.56s.30.20.51.20c.25,0,.47-.08.68-.24v.33c-.19.14-.44.21-.76.21s-.55-.10-.72-.30c-.18-.20-.26-.48-.26-.83,0-.34.10-.61.29-.83s.43-.32.71-.32.50.09.66.28c.16.18.23.44.23.77v.18ZM78.79,39.67c0-.20-.05-.36-.15-.47-.10-.11-.23-.17-.40-.17s-.30.06-.42.18c-.11.12-.19.27-.21.46h1.17Z"/>
  </g>
  <path class="cls-1" d="M67.11,4.07h-13.38c-2.84,0-5.15,2.30-5.15,5.15v13.38c0,2.84,2.30,5.15,5.15,5.15h18.53V9.22c0-2.84-2.30-5.15-5.15-5.15ZM64.99,9.07c-1.04,1.05-2.47,1.91-4.06,1.91h-1.64c-.23,0-.41-.18-.41-.41v-2.40l-1.96,2.50c-.08.10-.21.16-.34.16h-2.19c-.38,0-.71.28-.74.66-.04.56.40.81.95.81h1.99c.13,0,.25.06.34.16l1.96,2.50v-2.26c0-.23.18-.41.41-.41h1.50c1.70,0,3.10,1.39,3.10,3.10v.02c0,1.61-1.29,2.91-2.88,2.91h-2.90c-3.87,0-7.14,2.58-8.24,6.12-.25-.56-.39-1.18-.39-1.83v-13.26c0-2.44,1.98-4.41,4.41-4.41h12.79c0,1.61-.64,3.06-1.68,4.12Z"/>
</svg>