<?xml version="1.0" encoding="UTF-8"?>
<svg id="Layer_2" data-name="Layer 2" xmlns="http://www.w3.org/2000/svg" xmlns:xlink="http://www.w3.org/1999/xlink" viewBox="0 0 120 47">
  <defs>
    <style>
      .cls-1 {
        fill: url(#linear-gradient-2);
      }

      .cls-2 {
        fill:#000000;
      }

      .cls-3 {
        fill: url(#linear-gradient);
      }

      .tagline {
        fill: #ffc70a;
        font-size: 7px;
        font-family: Arial, sans-serif;
        font-weight: bold;
      }
    </style>
    <linearGradient id="linear-gradient" x1="12.1" y1="35.6" x2="12.1" y2="11.4" gradientUnits="userSpaceOnUse">
      <stop offset="0" stop-color="#ffc70a"/>
      <stop offset="1" stop-color="#f8ec1e"/>
    </linearGradient>
    <linearGradient id="linear-gradient-2" x1="74.48" y1="32.77" x2="74.48" y2="24.57" xlink:href="#linear-gradient"/>
  </defs>
  <path class="cls-3" d="M18.94,11.4H5.26c-2.91,0-5.26,2.36-5.26,5.26v13.68c0,2.91,2.36,5.26,5.26,5.26h18.94v-18.94c0-2.91-2.36-5.26-5.26-5.26ZM16.76,16.51c-1.06,1.08-2.53,1.95-4.14,1.95h-1.68c-.23,0-.42-.19-.42-.42v-2.46l-2,2.56c-.08.11-.21.17-.34.17h-2.24c-.39,0-.73.29-.76.67-.05.57.41.83.97.83h2.03c.13,0,.26.06.34.17l2,2.56v-2.31c0-.23.19-.42.42-.42h1.53c1.74,0,3.16,1.42,3.16,3.16v.02c0,1.64-1.32,2.98-2.94,2.98h-2.97c-3.96,0-7.3,2.63-8.42,6.26-.26-.57-.4-1.2-.4-1.87v-13.55c0-2.49,2.02-4.51,4.51-4.51h13.07c0,1.64-.66,3.13-1.71,4.21Z"/>
  <g>
    <g>
      <!-- <text x="30" y="22" class="cls-2" font-size="13" font-family="Arial, sans-serif" font-weight="bold">Flight on Budget</text>
      <text x="30" y="32" class="tagline">spend less, fly more</text> -->
    </g>
    <g>
      <path class="cls-2" d="M27.83,22.49v-7.34h5.55v1.36h-3.85v5.98h-1.7ZM29.4,19.82v-1.36h3.52v1.36h-3.52Z"/>
      <path class="cls-2" d="M34.42,22.49v-7.78h1.64v7.78h-1.64Z"/>
      <path class="cls-2" d="M38.39,16.06c-.3,0-.55-.09-.73-.26-.19-.17-.28-.39-.28-.65s.09-.48.28-.65c.19-.17.43-.26.73-.26s.55.08.73.25c.19.16.28.38.28.63,0,.27-.09.5-.28.68s-.43.27-.74.27ZM37.57,22.49v-5.64h1.64v5.64h-1.64Z"/>
      <path class="cls-2" d="M43.13,22.22c-.52,0-1-.11-1.42-.34-.42-.23-.76-.55-1.02-.95-.26-.41-.38-.89-.38-1.43s.13-1.03.38-1.44c.26-.41.59-.73,1.02-.95.42-.22.9-.34,1.42-.34.48,0,.89.1,1.26.29.36.19.65.49.85.89.2.4.3.92.3,1.55s-.1,1.13-.3,1.54c-.2.4-.49.7-.85.9-.36.2-.78.29-1.26.29ZM43.38,24.61c-.53,0-1.04-.06-1.54-.19-.49-.13-.9-.32-1.23-.58l.65-1.17c.24.2.54.35.91.47.37.12.73.17,1.09.17.58,0,1-.13,1.26-.39.26-.26.39-.64.39-1.15v-.85l.1-1.42-.02-1.43v-1.22h1.55v4.7c0,1.05-.27,1.82-.82,2.32-.55.5-1.33.74-2.35.74ZM43.45,20.87c.29,0,.54-.06.77-.17.22-.12.4-.28.52-.49.13-.21.19-.45.19-.72s-.06-.52-.19-.73c-.13-.21-.3-.37-.52-.48-.22-.12-.48-.17-.77-.17s-.54.06-.77.17c-.22.12-.4.28-.53.48-.13.21-.19.45-.19.73s.06.51.19.72c.13.21.31.37.53.49.22.12.48.17.77.17Z"/>
      <path class="cls-2" d="M48.07,22.49v-7.78h1.64v3.7l-.37-.47c.2-.38.49-.67.87-.87.38-.2.81-.3,1.29-.3.45,0,.85.09,1.2.27.35.18.63.45.83.82.2.37.3.84.3,1.41v3.23h-1.64v-2.98c0-.45-.1-.79-.3-1.01-.2-.22-.48-.33-.84-.33-.26,0-.49.05-.7.16-.21.11-.37.27-.48.5-.12.22-.17.51-.17.86v2.79h-1.64Z"/>
      <path class="cls-2" d="M54.64,18.11v-1.26h3.91v1.26h-3.91ZM57.62,22.57c-.66,0-1.18-.17-1.55-.51-.37-.34-.56-.84-.56-1.52v-4.95h1.64v4.93c0,.24.06.42.19.55.13.13.3.19.51.19.26,0,.48-.07.66-.21l.44,1.15c-.17.12-.37.21-.6.27-.23.06-.48.09-.73.09Z"/>
      <path class="cls-2" d="M65.53,22.57c-.6,0-1.13-.13-1.6-.38-.47-.25-.83-.6-1.1-1.03-.27-.44-.4-.93-.4-1.49s.13-1.07.4-1.5c.27-.44.64-.78,1.1-1.03.46-.25,1-.37,1.6-.37s1.13.12,1.59.37c.47.25.84.59,1.1,1.02.27.43.4.94.4,1.51s-.13,1.06-.4,1.49c-.27.44-.63.78-1.1,1.03-.47.25-1,.38-1.59.38ZM65.53,21.23c.27,0,.52-.06.73-.19.22-.13.39-.31.51-.54.13-.23.19-.51.19-.83s-.06-.61-.19-.84c-.13-.23-.3-.41-.51-.53-.22-.13-.46-.19-.73-.19s-.52.06-.73.19-.39.3-.52.53c-.13.23-.19.51-.19.84s.06.6.19.83c.13.23.3.41.52.54.22.13.46.19.73.19Z"/>
      <path class="cls-2" d="M69.71,22.49v-5.64h1.56v1.56l-.29-.47c.2-.38.49-.67.87-.87.38-.2.81-.3,1.29-.3.45,0,.85.09,1.2.27.35.18.63.45.83.82.2.37.3.84.3,1.41v3.23h-1.64v-2.98c0-.45-.1-.79-.3-1.01-.2-.22-.48-.33-.84-.33-.26,0-.49.05-.7.16-.21.11-.37.27-.48.5-.12.22-.17.51-.17.86v2.79h-1.64Z"/>
      <path class="cls-2" d="M80.04,22.49v-7.34h3.59c.92,0,1.62.17,2.08.52.46.35.7.81.7,1.38,0,.38-.09.72-.28,1-.19.28-.45.5-.78.66-.33.15-.71.23-1.13.23l.2-.43c.46,0,.87.08,1.23.23.36.15.63.37.83.67s.3.65.3,1.08c0,.63-.25,1.12-.74,1.47-.5.35-1.23.53-2.19.53h-3.8ZM81.73,21.21h1.98c.44,0,.77-.07,1-.21.23-.14.34-.37.34-.69s-.11-.54-.34-.69-.56-.23-1-.23h-2.11v-1.24h1.81c.41,0,.73-.07.95-.21.22-.14.33-.36.33-.66s-.11-.5-.33-.64c-.22-.14-.54-.21-.95-.21h-1.69v4.78Z"/>
      <path class="cls-2" d="M90.33,22.57c-.47,0-.89-.09-1.25-.27-.37-.18-.65-.46-.85-.83-.2-.37-.3-.85-.3-1.43v-3.19h1.64v2.95c0,.47.1.81.3,1.03s.48.33.84.33c.25,0,.48-.05.67-.16.2-.11.35-.28.46-.5.11-.23.17-.51.17-.85v-2.79h1.64v5.64h-1.55v-1.55l.28.45c-.19.39-.47.69-.83.89-.37.2-.77.3-1.2.3Z"/>
      <path class="cls-2" d="M97.57,22.57c-.53,0-1.01-.12-1.44-.36-.43-.24-.76-.58-1.01-1.01-.25-.43-.37-.94-.37-1.53s.12-1.11.37-1.54c.25-.43.59-.77,1.01-1.01.43-.24.91-.36,1.44-.36.48,0,.89.1,1.25.31.36.21.63.53.83.95.2.43.29.97.29,1.64s-.09,1.2-.28,1.63-.46.75-.81.96-.78.31-1.27.31ZM97.85,21.23c.27,0,.51-.06.72-.19.22-.13.39-.31.52-.54.13-.23.19-.51.19-.83s-.06-.61-.19-.84c-.13-.23-.3-.41-.52-.53s-.46-.19-.72-.19-.52.06-.73.19-.39.3-.52.53c-.13.23-.19.51-.19.84s.06.6.19.83c.13.23.3.41.52.54.22.13.46.19.73.19ZM99.33,22.49v-1.15l.03-1.68-.1-1.67v-3.28h1.64v7.78h-1.56Z"/>
      <path class="cls-2" d="M104.81,22.22c-.52,0-1-.11-1.42-.34-.42-.23-.76-.55-1.02-.95-.26-.41-.38-.89-.38-1.43s.13-1.03.38-1.44c.26-.41.59-.73,1.02-.95.42-.22.9-.34,1.42-.34.48,0,.89.1,1.26.29.36.19.65.49.85.89.2.4.3.92.3,1.55s-.1,1.13-.3,1.54c-.2.4-.49.7-.85.9-.36.2-.78.29-1.26.29ZM105.06,24.61c-.53,0-1.04-.06-1.54-.19-.49-.13-.9-.32-1.23-.58l.65-1.17c.24.2.54.35.91.47.37.12.73.17,1.09.17.58,0,1-.13,1.26-.39.26-.26.39-.64.39-1.15v-.85l.1-1.42-.02-1.43v-1.22h1.55v4.7c0,1.05-.27,1.82-.82,2.32-.55.5-1.33.74-2.35.74ZM105.13,20.87c.29,0,.54-.06.77-.17.22-.12.4-.28.52-.49.13-.21.19-.45.19-.72s-.06-.52-.19-.73c-.13-.21-.3-.37-.52-.48-.22-.12-.48-.17-.77-.17s-.54.06-.77.17c-.22.12-.4.28-.53.48-.13.21-.19.45-.19.73s.06.51.19.72c.13.21.31.37.53.49.22.12.48.17.77.17Z"/>
      <path class="cls-2" d="M112.54,22.57c-.64,0-1.21-.13-1.69-.38-.49-.25-.86-.6-1.13-1.03-.27-.44-.4-.93-.4-1.49s.13-1.07.39-1.5c.26-.44.62-.78,1.07-1.03.45-.25.97-.37,1.54-.37s1.05.12,1.49.35c.44.23.8.57,1.05,1.01.26.44.39.96.39,1.57,0,.06,0,.13-.01.22s-.01.16-.02.23h-4.58v-.95h3.72l-.63.28c0-.29-.06-.55-.18-.77-.12-.22-.28-.39-.49-.51-.21-.12-.45-.18-.73-.18s-.53.06-.74.18c-.21.12-.38.29-.5.51-.12.22-.18.48-.18.78v.25c0,.31.07.58.2.81.14.23.33.41.58.53.25.12.54.18.88.18.3,0,.56-.05.79-.14.23-.09.44-.23.62-.41l.87.94c-.26.29-.58.52-.98.68s-.84.24-1.35.24Z"/>
      <path class="cls-2" d="M115.69,18.11v-1.26h3.91v1.26h-3.91ZM118.67,22.57c-.66,0-1.18-.17-1.55-.51-.37-.34-.56-.84-.56-1.52v-4.95h1.64v4.93c0,.24.06.42.19.55.13.13.3.19.51.19.26,0,.48-.07.66-.21l.44,1.15c-.17.12-.37.21-.6.27-.23.06-.48.09-.73.09Z"/>
    </g>
    <path class="cls-1" d="M51.38,24.57h49.53v8.2h-49.53c-1.84,0-3.34-1.5-3.34-3.34v-1.52c0-1.84,1.5-3.34,3.34-3.34Z"/>
    <g>
      <path d="M49.61,30.05v-.5c.25.19.53.28.83.28.41,0,.61-.14.61-.41,0-.08-.02-.14-.05-.2-.03-.05-.08-.1-.14-.14-.06-.04-.13-.08-.21-.11s-.17-.07-.26-.1c-.13-.05-.24-.1-.34-.15-.1-.05-.18-.11-.24-.17-.06-.06-.11-.14-.15-.22-.03-.08-.05-.18-.05-.29,0-.14.03-.26.09-.36.06-.1.14-.19.25-.26.1-.07.22-.12.35-.16.13-.04.27-.05.41-.05.25,0,.47.04.67.13v.47c-.21-.14-.46-.21-.73-.21-.09,0-.16,0-.23.03-.07.02-.13.05-.18.08-.05.04-.09.08-.12.13-.03.05-.04.1-.04.16,0,.08.01.14.04.19.03.05.07.1.12.14.05.04.12.08.19.11s.16.07.26.1c.13.05.24.1.34.15.1.05.19.11.26.17.07.06.13.14.16.22s.06.19.06.3c0,.14-.03.27-.09.37s-.15.19-.25.26c-.11.07-.23.12-.36.16-.14.03-.28.05-.43.05-.3,0-.55-.06-.77-.17Z"/>
      <path d="M52.71,29.74h-.01v1.75h-.46v-4.22h.46v.51h.01c.23-.38.56-.58,1-.58.37,0,.66.13.87.39s.31.6.31,1.04c0,.48-.12.87-.35,1.16s-.56.44-.96.44c-.37,0-.66-.16-.87-.49ZM52.7,28.58v.4c0,.24.08.44.23.61.16.17.35.25.59.25.28,0,.5-.11.66-.32.16-.21.24-.51.24-.89,0-.32-.07-.57-.22-.76-.15-.18-.35-.27-.6-.27-.27,0-.49.09-.65.28-.16.19-.25.42-.25.7Z"/>
      <path d="M57.96,28.83h-2.04c0,.32.09.57.26.74s.39.26.68.26c.33,0,.62-.11.9-.32v.43c-.25.18-.59.28-1.01.28s-.73-.13-.96-.39c-.23-.26-.35-.63-.35-1.11,0-.45.13-.82.38-1.1s.57-.42.95-.42.67.12.88.37c.21.24.31.58.31,1.02v.24ZM57.48,28.44c0-.27-.07-.47-.19-.62-.13-.15-.3-.22-.53-.22s-.4.08-.56.23c-.15.16-.25.36-.28.61h1.56Z"/>
      <path d="M61.05,30.16h-.46v-1.65c0-.61-.22-.92-.67-.92-.23,0-.42.09-.57.26-.15.17-.23.39-.23.66v1.65h-.46v-2.89h.46v.48h.01c.22-.36.53-.55.95-.55.32,0,.56.1.73.31.17.2.25.5.25.88v1.77Z"/>
      <path d="M64.39,30.16h-.46v-.49h-.01c-.21.37-.55.56-.99.56-.36,0-.65-.13-.87-.39-.22-.26-.33-.61-.33-1.06,0-.48.12-.86.36-1.15s.56-.43.96-.43.69.16.87.47h.01v-1.79h.46v4.28ZM63.93,28.85v-.43c0-.23-.08-.43-.23-.59-.15-.16-.35-.24-.59-.24-.28,0-.5.1-.67.31-.16.21-.24.49-.24.86,0,.33.08.6.23.79s.36.29.62.29.47-.09.63-.28.24-.42.24-.71Z"/>
      <path d="M67.37,30.16h-.46v-4.28h.46v4.28Z"/>
      <path d="M70.63,28.83h-2.04c0,.32.09.57.26.74s.39.26.68.26c.33,0,.62-.11.9-.32v.43c-.25.18-.59.28-1.01.28s-.73-.13-.96-.39c-.23-.26-.35-.63-.35-1.11,0-.45.13-.82.38-1.1s.57-.42.95-.42.67.12.88.37c.21.24.31.58.31,1.02v.24ZM70.15,28.44c0-.27-.07-.47-.19-.62-.13-.15-.3-.22-.53-.22s-.4.08-.56.23c-.15.16-.25.36-.28.61h1.56Z"/>
      <path d="M71.15,30.05v-.5c.25.19.53.28.83.28.41,0,.61-.14.61-.41,0-.08-.02-.14-.05-.2-.03-.05-.08-.1-.14-.14-.06-.04-.13-.08-.21-.11s-.17-.07-.26-.1c-.13-.05-.24-.1-.34-.15-.1-.05-.18-.11-.24-.17-.06-.06-.11-.14-.15-.22-.03-.08-.05-.18-.05-.29,0-.14.03-.26.09-.36.06-.1.14-.19.25-.26.1-.07.22-.12.35-.16.13-.04.27-.05.41-.05.25,0,.47.04.67.13v.47c-.21-.14-.46-.21-.73-.21-.09,0-.16,0-.23.03-.07.02-.13.05-.18.08-.05.04-.09.08-.12.13-.03.05-.04.1-.04.16,0,.08.01.14.04.19.03.05.07.1.12.14.05.04.12.08.19.11s.16.07.26.1c.13.05.24.1.34.15.1.05.19.11.26.17.07.06.13.14.16.22s.06.19.06.3c0,.14-.03.27-.09.37s-.15.19-.25.26c-.11.07-.23.12-.36.16-.14.03-.28.05-.43.05-.3,0-.55-.06-.77-.17Z"/>
      <path d="M73.6,30.05v-.5c.25.19.53.28.83.28.41,0,.61-.14.61-.41,0-.08-.02-.14-.05-.2-.03-.05-.08-.1-.14-.14-.06-.04-.13-.08-.21-.11s-.17-.07-.26-.1c-.13-.05-.24-.1-.34-.15-.1-.05-.18-.11-.24-.17-.06-.06-.11-.14-.15-.22-.03-.08-.05-.18-.05-.29,0-.14.03-.26.09-.36.06-.1.14-.19.25-.26.1-.07.22-.12.35-.16.13-.04.27-.05.41-.05.25,0,.47.04.67.13v.47c-.21-.14-.46-.21-.73-.21-.09,0-.16,0-.23.03-.07.02-.13.05-.18.08-.05.04-.09.08-.12.13-.03.05-.04.1-.04.16,0,.08.01.14.04.19.03.05.07.1.12.14.05.04.12.08.19.11s.16.07.26.1c.13.05.24.1.34.15.1.05.19.11.26.17.07.06.13.14.16.22s.06.19.06.3c0,.14-.03.27-.09.37s-.15.19-.25.26c-.11.07-.23.12-.36.16-.14.03-.28.05-.43.05-.3,0-.55-.06-.77-.17Z"/>
      <path d="M76.65,29.51l-.45,1.39h-.33l.33-1.39h.45Z"/>
      <path d="M80.49,26.29c-.09-.05-.19-.08-.31-.08-.32,0-.49.2-.49.61v.45h.68v.39h-.68v2.49h-.46v-2.49h-.49v-.39h.49v-.47c0-.3.09-.54.26-.72s.39-.26.65-.26c.14,0,.25.02.34.05v.42Z"/>
      <path d="M81.33,30.16h-.46v-4.28h.46v4.28Z"/>
      <path d="M84.57,27.27l-1.33,3.35c-.24.6-.57.9-1,.9-.12,0-.22-.01-.3-.04v-.41c.1.03.19.05.27.05.23,0,.41-.14.52-.42l.23-.55-1.13-2.88h.51l.78,2.22s.03.1.06.22h.02s.03-.12.06-.21l.82-2.23h.48Z"/>
      <path d="M90.75,30.16h-.46v-1.66c0-.32-.05-.55-.15-.69-.1-.14-.26-.21-.5-.21-.2,0-.37.09-.5.27-.14.18-.21.4-.21.65v1.65h-.46v-1.71c0-.57-.22-.85-.66-.85-.2,0-.37.09-.5.26-.13.17-.2.39-.2.66v1.65h-.46v-2.89h.46v.46h.01c.2-.35.5-.52.9-.52.2,0,.37.06.52.17.15.11.25.25.3.43.21-.4.53-.6.96-.6.64,0,.95.39.95,1.18v1.78Z"/>
      <path d="M92.83,30.23c-.43,0-.77-.13-1.02-.4-.25-.27-.38-.63-.38-1.07,0-.49.13-.86.4-1.14.27-.27.62-.41,1.07-.41s.77.13,1.01.4c.24.27.36.63.36,1.1s-.13.83-.39,1.11c-.26.28-.61.42-1.05.42ZM92.87,27.59c-.3,0-.53.1-.71.3-.17.2-.26.48-.26.84s.09.61.26.81c.17.2.41.3.7.3s.53-.1.69-.29c.16-.19.24-.47.24-.83s-.08-.64-.24-.83c-.16-.2-.39-.29-.69-.29Z"/>
      <path d="M96.51,27.74c-.08-.06-.2-.09-.35-.09-.2,0-.36.09-.49.28-.13.19-.2.44-.2.76v1.47h-.46v-2.89h.46v.6h.01c.07-.2.17-.36.3-.48.14-.11.29-.17.45-.17.12,0,.21.01.28.04v.48Z"/>
      <path d="M99.34,28.83h-2.04c0,.32.09.57.26.74s.39.26.68.26c.33,0,.62-.11.9-.32v.43c-.25.18-.59.28-1.01.28s-.73-.13-.96-.39c-.23-.26-.35-.63-.35-1.11,0-.45.13-.82.38-1.1s.57-.42.95-.42.67.12.88.37c.21.24.31.58.31,1.02v.24ZM98.86,28.44c0-.27-.07-.47-.19-.62-.13-.15-.3-.22-.53-.22s-.4.08-.56.23c-.15.16-.25.36-.28.61h1.56Z"/>
    </g>
  </g>
</svg>